<svg width="24" height="24" viewBox="0 0 24 24" fill="none" xmlns="http://www.w3.org/2000/svg">
<path d="M14.3 12.179C14.2023 12.0815 14.2021 11.9232 14.2996 11.8254C14.2997 11.8253 14.2999 11.8251 14.3 11.825L23.563 2.56298C24.1487 1.97646 24.148 1.02618 23.5615 0.440482C22.975 -0.145216 22.0247 -0.144544 21.439 0.441982L12.177 9.69998C12.0795 9.79774 11.9212 9.79794 11.8235 9.70043C11.8233 9.70028 11.8232 9.70013 11.823 9.69998L2.56101 0.441982V0.441982C1.97531 -0.143992 1.02548 -0.144216 0.439505 0.441482C-0.146469 1.02718 -0.146693 1.97701 0.439005 2.56298L9.7 11.825C9.79776 11.9225 9.79796 12.0808 9.70045 12.1785C9.7003 12.1787 9.70015 12.1788 9.7 12.179L0.439005 21.442H0.439005C-0.146693 22.028 -0.146469 22.9778 0.439505 23.5635C1.02548 24.1492 1.97531 24.149 2.56101 23.563L11.823 14.3C11.9205 14.2022 12.0788 14.202 12.1766 14.2995C12.1767 14.2997 12.1769 14.2998 12.177 14.3L21.439 23.563C22.0247 24.149 22.9745 24.1492 23.5605 23.5635C24.1465 22.9778 24.1467 22.028 23.561 21.442L14.3 12.179Z" fill="#E77F64"/>
</svg>
