<svg width="14" height="21" viewBox="0 0 14 21" fill="none" xmlns="http://www.w3.org/2000/svg">
<path fill-rule="evenodd" clip-rule="evenodd" d="M7 0C3.13581 0.00433993 0.00434 3.13581 0 7C0 10.0712 4.375 17.5219 6.2545 20.5835C6.41378 20.8424 6.69602 21.0001 7 21C7.30455 21.0014 7.58754 20.843 7.7455 20.5826C9.625 17.5227 14 10.0747 14 7C13.9958 3.13581 10.8642 0.0044625 7 0ZM3.9375 7C3.9375 8.69137 5.30863 10.0625 7 10.0625C8.69138 10.0625 10.0625 8.69137 10.0625 7C10.0625 5.30862 8.69138 3.9375 7 3.9375C5.30863 3.9375 3.9375 5.30862 3.9375 7Z" fill="#EBC2AD"/>
</svg>
