<?xml version="1.0" encoding="UTF-8"?>
<svg width="449px" height="438px" viewBox="0 0 449 438" version="1.1" xmlns="http://www.w3.org/2000/svg" xmlns:xlink="http://www.w3.org/1999/xlink">
    <title>arrow-right-solid</title>
    <g id="Page-1" stroke="none" stroke-width="1" fill="none" fill-rule="evenodd">
        <path d="M257.55,408.1 L235.35,430.3 C225.95,439.7 210.75,439.7 201.45,430.3 L7.05,236 C-2.35,226.6 -2.35,211.4 7.05,202.1 L201.45,7.7 C210.85,-1.7 226.05,-1.7 235.35,7.7 L257.55,29.9 C267.05,39.4 266.85,54.9 257.15,64.2 L136.65,179 L424.05,179 C437.35,179 448.05,189.7 448.05,203 L448.05,235 C448.05,248.3 437.35,259 424.05,259 L136.65,259 L257.15,373.8 C266.95,383.1 267.15,398.6 257.55,408.1 Z" id="arrow-right-solid" fill="#000000" fill-rule="nonzero" transform="translate(224.025000, 219.000000) scale(-1, 1) translate(-224.025000, -219.000000) "></path>
    </g>
</svg>