<svg width="24" height="24" viewBox="0 0 24 24" fill="none" xmlns="http://www.w3.org/2000/svg">
<path d="M22 0.5H11.5C10.3954 0.5 9.5 1.39543 9.5 2.5V5.5C9.5 6.05229 9.94771 6.5 10.5 6.5C11.0523 6.5 11.5 6.05229 11.5 5.5V3C11.5 2.72386 11.7239 2.5 12 2.5H21.5C21.7761 2.5 22 2.72386 22 3V21C22 21.2761 21.7761 21.5 21.5 21.5H12C11.7239 21.5 11.5 21.2761 11.5 21V18.5C11.5 17.9477 11.0523 17.5 10.5 17.5C9.94771 17.5 9.5 17.9477 9.5 18.5V21.5C9.5 22.6046 10.3954 23.5 11.5 23.5H22C23.1046 23.5 24 22.6046 24 21.5V2.5C24 1.39543 23.1046 0.500001 22 0.500001V0.5Z" fill="#E77F64"/>
<path d="M17 14C17.8284 14 18.5 13.3285 18.5 12.5C18.5 11.6716 17.8284 11 17 11H7.99997V8.50003V8.49988C7.99997 7.94759 7.55225 7.49988 6.99997 7.49988C6.80237 7.49988 6.6092 7.55842 6.44484 7.66811L0.444842 11.6681H0.444842C-0.0146586 11.9745 -0.138777 12.5954 0.167618 13.0549C0.240829 13.1647 0.335047 13.2589 0.444842 13.3321L6.44484 17.3321C6.75258 17.5344 7.14591 17.5536 7.47184 17.3821C7.79712 17.208 8.00012 16.869 7.99997 16.5V14L17 14Z" fill="#E77F64"/>
</svg>
