<svg width="48" height="48" viewBox="0 0 48 48" fill="none" xmlns="http://www.w3.org/2000/svg">
<circle cx="24" cy="24" r="24" fill="#E77F64"/>
<path d="M35.9662 22.2283C35.8244 22.2663 35.7427 22.3392 35.601 22.3771L26.1624 6.80314C25.8804 6.31765 25.2587 6.0762 24.739 6.21545L19.6365 7.58266C18.9278 7.77255 18.5611 8.48286 18.7396 9.1491C18.9182 9.81533 19.6381 10.2345 20.2996 10.0572L24.5044 8.93056L29.607 17.9697L27.7583 27.0288C27.2395 28.494 26.0606 29.5749 24.596 29.9674L17.9366 31.7517C16.6938 29.3815 13.976 28.1205 11.3302 28.8295C8.25929 29.6523 6.4311 32.8454 7.25993 35.9387C8.08876 39.0319 11.2686 40.8831 14.3395 40.0603C16.9853 39.3513 18.7085 36.9004 18.5996 34.2263L25.2591 32.4419C27.5268 31.8343 29.3941 30.1098 30.1597 27.8645L31.4852 20.6237L33.37 23.689C31.9714 25.0839 31.2748 27.2087 31.8359 29.3026C32.6647 32.3958 35.8445 34.247 38.9155 33.4242C41.9864 32.6013 43.8146 29.4082 42.9858 26.315C42.2169 23.2567 39.0371 21.4054 35.9662 22.2283ZM13.6765 37.5857C11.9756 38.0414 10.1885 37.0411 9.71669 35.2804C9.25765 33.5672 10.2452 31.7724 11.9933 31.304C13.2689 30.9622 14.5596 31.4325 15.3253 32.4004L12.4906 33.16C11.7819 33.3499 11.4152 34.0602 11.5938 34.7264C11.785 35.4402 12.4922 35.8118 13.1537 35.6346L15.9884 34.875C15.8347 36.1913 14.9521 37.2439 13.6765 37.5857ZM38.3124 30.9845C36.6116 31.4402 34.8244 30.44 34.3526 28.6792C34.0976 27.7274 34.306 26.8045 34.8145 26.0562L36.3444 28.5535C36.6264 29.039 37.2482 29.2805 37.7679 29.1412C37.9096 29.1032 38.0041 29.0779 38.1331 28.9924C38.7435 28.6248 38.9302 27.8097 38.5627 27.1941L37.0455 24.7444C38.6083 24.5296 40.181 25.4853 40.6018 27.0558C41.0008 28.734 40.0132 30.5288 38.3124 30.9845Z" fill="#FBEFE8"/>
</svg>
