<svg width="59" height="52" viewBox="0 0 59 52" fill="none" xmlns="http://www.w3.org/2000/svg">
<path d="M25.6402 2.01544C27.1758 -0.671815 31.0506 -0.671815 32.5862 2.01544L57.6934 45.9532C59.2172 48.6198 57.2918 51.9377 54.2205 51.9377H4.00591C0.934621 51.9377 -0.990849 48.6198 0.532938 45.9532L25.6402 2.01544Z" fill="#E77F64"/>
<path d="M39.0794 29.166C38.9376 29.204 38.8559 29.2769 38.7142 29.3149L29.2756 13.7409C28.9936 13.2554 28.3719 13.0139 27.8522 13.1532L22.7497 14.5204C22.041 14.7103 21.6743 15.4206 21.8528 16.0868C22.0313 16.7531 22.7513 17.1722 23.4127 16.995L27.6176 15.8683L32.7202 24.9074L30.8715 33.9666C30.3526 35.4317 29.1738 36.5127 27.7092 36.9051L21.0498 38.6895C19.807 36.3192 17.0892 35.0583 14.4434 35.7672C11.3725 36.5901 9.54429 39.7832 10.3731 42.8764C11.2019 45.9696 14.3818 47.8209 17.4527 46.998C20.0985 46.2891 21.8217 43.8382 21.7128 41.1641L28.3723 39.3797C30.64 38.772 32.5073 37.0476 33.2729 34.8023L34.5984 27.5614L36.4832 30.6268C35.0846 32.0216 34.388 34.1464 34.9491 36.2403C35.7779 39.3335 38.9577 41.1848 42.0287 40.3619C45.0996 39.539 46.9278 36.3459 46.099 33.2527C45.3301 30.1944 42.1503 28.3432 39.0794 29.166ZM16.7897 44.5234C15.0888 44.9792 13.3017 43.9789 12.8299 42.2181C12.3708 40.505 13.3584 38.7102 15.1065 38.2418C16.3821 37.9 17.6728 38.3702 18.4385 39.3382L15.6038 40.0977C14.8951 40.2876 14.5284 40.9979 14.7069 41.6642C14.8982 42.378 15.6054 42.7495 16.2669 42.5723L19.1016 41.8127C18.9479 43.129 18.0653 44.1816 16.7897 44.5234ZM41.4256 37.9222C39.7248 38.378 37.9376 37.3777 37.4658 35.6169C37.2108 34.6652 37.4192 33.7423 37.9276 32.994L39.4576 35.4913C39.7396 35.9768 40.3613 36.2182 40.881 36.079C41.0228 36.041 41.1173 36.0157 41.2463 35.9301C41.8567 35.5625 42.0434 34.7474 41.6759 34.1318L40.1586 31.6821C41.7215 31.4674 43.2942 32.4231 43.715 33.9935C44.114 35.6717 43.1264 37.4665 41.4256 37.9222Z" fill="#FBEFE8"/>
</svg>
