<svg width="48" height="48" viewBox="0 0 48 48" fill="none" xmlns="http://www.w3.org/2000/svg">
<circle cx="24" cy="24" r="24" fill="#E77F64" fill-opacity="0.95"/>
<path d="M19.625 15.375H37.75V15.375C38.4404 15.375 39 14.8154 39 14.125C39 13.4346 38.4404 12.875 37.75 12.875H19.625V12.875C18.9346 12.875 18.375 13.4346 18.375 14.125C18.375 14.8154 18.9346 15.375 19.625 15.375V15.375Z" fill="#FBEFE8"/>
<path d="M37.75 22.875H19.625V22.875C18.9346 22.875 18.375 23.4346 18.375 24.125C18.375 24.8154 18.9346 25.375 19.625 25.375H37.75V25.375C38.4404 25.375 39 24.8154 39 24.125C39 23.4346 38.4404 22.875 37.75 22.875V22.875Z" fill="#FBEFE8"/>
<path d="M37.75 32.875H19.625V32.875C18.9346 32.875 18.375 33.4346 18.375 34.125C18.375 34.8154 18.9346 35.375 19.625 35.375H37.75V35.375C38.4404 35.375 39 34.8154 39 34.125C39 33.4346 38.4404 32.875 37.75 32.875V32.875Z" fill="#FBEFE8"/>
<path d="M10.875 15.9975C10.5298 15.9975 10.25 15.7177 10.25 15.3725V12.8725C10.25 12.5273 10.5298 12.2475 10.875 12.2475H13.375C13.7202 12.2475 14 12.5273 14 12.8725V15.3725C14 15.7177 13.7202 15.9975 13.375 15.9975H10.875Z" fill="#FBEFE8"/>
<path d="M13.375 11H10.875H10.875C9.83947 11 9 11.8395 9 12.875V12.875V15.375H9C9 16.4105 9.83947 17.25 10.875 17.25H13.375V17.25C14.4105 17.25 15.25 16.4105 15.25 15.375C15.25 15.375 15.25 15.375 15.25 15.375V12.875C15.25 11.8395 14.4105 11 13.375 11V11ZM14 15.375C14 15.7202 13.7202 16 13.375 16H10.875V16C10.5298 16 10.25 15.7202 10.25 15.375V12.875V12.875C10.25 12.5298 10.5298 12.25 10.875 12.25H13.375V12.25C13.7202 12.25 14 12.5298 14 12.875C14 12.875 14 12.875 14 12.875V15.375Z" fill="#FBEFE8"/>
<path d="M10.875 25.9975C10.5298 25.9975 10.25 25.7177 10.25 25.3725V22.8725C10.25 22.5273 10.5298 22.2475 10.875 22.2475H13.375C13.7202 22.2475 14 22.5273 14 22.8725V25.3725C14 25.7177 13.7202 25.9975 13.375 25.9975H10.875Z" fill="#FBEFE8"/>
<path d="M13.375 21H10.875H10.875C9.83947 21 9 21.8395 9 22.875V22.875V25.375H9C9 26.4105 9.83947 27.25 10.875 27.25H13.375V27.25C14.4105 27.25 15.25 26.4105 15.25 25.375V22.875V22.875C15.25 21.8395 14.4105 21 13.375 21V21ZM14 25.375C14 25.7202 13.7202 26 13.375 26H10.875V26C10.5298 26 10.25 25.7202 10.25 25.375V25.375V22.875V22.875C10.25 22.5298 10.5298 22.25 10.875 22.25H13.375V22.25C13.7202 22.25 14 22.5298 14 22.875C14 22.875 14 22.875 14 22.875V25.375Z" fill="#FBEFE8"/>
<path d="M10.875 35.9975C10.5298 35.9975 10.25 35.7177 10.25 35.3725V32.8725C10.25 32.5273 10.5298 32.2475 10.875 32.2475H13.375C13.7202 32.2475 14 32.5273 14 32.8725V35.3725C14 35.7177 13.7202 35.9975 13.375 35.9975H10.875Z" fill="#FBEFE8"/>
<path d="M13.375 31H10.875H10.875C9.83947 31 9 31.8395 9 32.875V35.375H9C9 36.4105 9.83947 37.25 10.875 37.25H13.375V37.25C14.4105 37.25 15.25 36.4105 15.25 35.375V32.875V32.875C15.25 31.8395 14.4105 31 13.375 31V31ZM14 35.375C14 35.7202 13.7202 36 13.375 36H10.875V36C10.5298 36 10.25 35.7202 10.25 35.375V32.875V32.875C10.25 32.5298 10.5298 32.25 10.875 32.25H13.375V32.25C13.7202 32.25 14 32.5298 14 32.875C14 32.875 14 32.875 14 32.875V35.375Z" fill="#FBEFE8"/>
</svg>
